<svg xmlns="http://www.w3.org/2000/svg" xmlns:xlink="http://www.w3.org/1999/xlink" fill="none" version="1.1" width="200" height="200" viewBox="0 0 200 200"><defs><clipPath id="master_svg0_3_355"><rect x="0" y="0" width="200" height="200" rx="0"/></clipPath></defs><g clip-path="url(#master_svg0_3_355)"><g><path d="M0,0L200,0L200,200L0,200L0,0Z" fill="#ECD53F" fill-opacity="1"/></g><g><path d="M91.98599999999999,178.41000366210938L91.98599999999999,170.66000366210938L66.288,170.66000366210938L66.288,158.14000366210936L89.382,158.14000366210936L89.382,150.39000366210936L66.288,150.39000366210936L66.288,140.19200366210939L91.108,140.19200366210939L91.108,132.41000366210938L57,132.41000366210938L57,178.41000366210938L91.98599999999999,178.41000366210938ZM108.58500000000001,178.41000366210938L108.58500000000001,148.41300366210936L127.13,178.41000366210938L136.449,178.41000366210938L136.449,132.41000366210938L127.819,132.41000366210938L127.819,163.13000366210937L108.993,132.41000366210938L99.956,132.41000366210938L99.956,178.41000366210938L108.58500000000001,178.41000366210938Z" fill="#000000" fill-opacity="1"/></g><g><path d="M183.861,134.48782754882814L164.1315,177.3333875488281C163.7242,178.21798754882812,162.6776,178.22318754882812,162.2642,177.34288754882812L142.143461,134.4919575488281C141.69302,133.53265354882814,142.368477,132.3706725488281,143.26359,132.56497624882812L163.0142,136.8523675488281C163.1402,136.87971754882813,163.2692,136.87945754882813,163.3952,136.85157754882812L182.7328,132.57112304882813C183.6249,132.3736545488281,184.30360000000002,133.52663754882812,183.861,134.48782754882814Z" fill="#000000" fill-opacity="1"/></g><g><path d="M172.7175,126.0112055L158.31333,129.10765C158.07658,129.15854,157.901294,129.37865,157.887011,129.6428L157.000953967,146.06040000000002C156.9801136,146.4471,157.303817,146.7472,157.647831,146.6602L161.65815,145.6448C162.03337,145.5499,162.37242,145.9124,162.2953,146.3264L161.10384,152.7272C161.02365,153.15800000000002,161.39232,153.5263,161.77579,153.3985L164.25275,152.5729C164.63675,152.445,165.00573,152.8144,164.92449,153.2456L163.03104,163.2998C162.91256,163.9287,163.67506,164.2716,163.99305,163.73239999999998L164.20547,163.3723L175.9428,137.6745C176.1393,137.2442,175.8004,136.7536,175.3696,136.8448L171.2417,137.7188C170.8538,137.8009,170.5237,137.4045,170.6332,136.9882L173.3274,126.741481C173.437,126.324408,173.1058,125.9277364,172.7175,126.0112055Z" fill="#ECD53F" fill-opacity="1"/></g></g></svg>